<svg width="44" height="38" viewBox="0 0 44 38" fill="none" xmlns="http://www.w3.org/2000/svg">
<path d="M21.2657 32.3045C21.2657 34.9103 19.1533 37.0227 16.5474 37.0227C13.9416 37.0227 11.8292 34.9103 11.8292 32.3045C11.8292 30.5659 12.7695 29.0469 14.1693 28.2285C14.1439 28.161 12.127 19.9407 8.11888 3.56756C8.08708 3.43736 8.01541 3.32033 7.91388 3.23283C7.81235 3.14533 7.68603 3.09171 7.55256 3.07947L1.8821 3.07678C1.05304 3.07669 0.380859 2.4046 0.380859 1.57546C0.380859 0.773932 1.00891 0.119188 1.79974 0.0764083L7.49378 0.0742188C9.13599 0.0742188 10.5704 1.17107 11.0068 2.74456L11.7492 5.77735L41.7684 5.77761C42.5976 5.77761 43.2697 6.44978 43.2697 7.27884C43.2697 7.33855 43.2499 7.49501 43.2103 7.74832L39.4673 22.7604C39.2889 23.4762 38.6243 23.9427 37.9133 23.8956L16.1754 23.9011L16.9554 27.094C16.9872 27.2242 17.0589 27.3412 17.1604 27.4287C17.262 27.5162 17.3883 27.5698 17.5218 27.5821L34.9915 27.5861C37.5973 27.5861 39.7098 29.6985 39.7098 32.3044C39.7098 34.7466 37.8544 36.7554 35.4762 36.9981C35.3152 37.0145 35.1534 37.0227 34.9915 37.0227C32.3857 37.0227 30.2732 34.9102 30.2732 32.3044C30.2725 31.717 30.3818 31.1346 30.5953 30.5874H20.9435C21.1571 31.1346 21.2664 31.717 21.2657 32.3045ZM34.9917 30.5887C34.0441 30.5887 33.276 31.3568 33.276 32.3044C33.276 33.2519 34.0441 34.0201 34.9917 34.0201C35.9392 34.0201 36.7074 33.2519 36.7074 32.3044C36.7074 31.3568 35.9392 30.5887 34.9917 30.5887ZM16.5473 30.5887C15.5998 30.5887 14.8316 31.3568 14.8316 32.3044C14.8316 33.2519 15.5998 34.0201 16.5473 34.0201C17.4949 34.0201 18.2631 33.2519 18.2631 32.3044C18.2632 31.3568 17.495 30.5887 16.5473 30.5887ZM39.8583 8.77983H12.4828L15.4425 20.8995L36.837 20.8986L39.8583 8.77983Z" fill="#141414"/>
</svg>
